<svg width="359" height="346" viewBox="0 0 359 346" fill="none" xmlns="http://www.w3.org/2000/svg">
<g id="undraw_web_development_0l6v (1) 1">
<path id="Vector" d="M82.4529 219.741C81.8506 219.766 81.2543 219.622 80.7448 219.327C80.2353 219.032 79.8373 218.601 79.6047 218.093C79.3721 217.584 79.3161 217.023 79.4444 216.485C79.5726 215.946 79.8788 215.457 80.3216 215.082C80.3958 214.813 80.4489 214.62 80.5231 214.35C80.4966 214.292 80.4699 214.233 80.443 214.175C79.8362 212.865 78.8194 211.748 77.5203 210.964C76.2212 210.181 74.6977 209.766 73.1413 209.771C71.5848 209.776 70.0648 210.202 68.7721 210.994C67.4793 211.786 66.4716 212.91 65.8755 214.224C63.4929 219.469 60.4594 224.722 59.7125 230.267C59.3836 232.718 59.5223 235.203 60.1226 237.611C54.5266 226.454 51.6207 214.329 51.602 202.056C51.6008 198.976 51.7881 195.899 52.1628 192.838C52.4725 190.329 52.9022 187.838 53.4518 185.364C56.4512 171.944 62.891 159.366 72.2423 148.662C76.7683 146.405 80.4286 142.935 82.7299 138.718C83.5635 137.202 84.1528 135.584 84.4792 133.914C83.9686 133.975 83.4497 134.013 82.9391 134.044C82.7801 134.052 82.6127 134.059 82.4537 134.067L82.3937 134.069C81.8325 134.092 81.2761 133.967 80.7913 133.707C80.3066 133.448 79.9141 133.066 79.6613 132.608C79.4084 132.149 79.306 131.634 79.3662 131.124C79.4264 130.613 79.6468 130.13 80.0007 129.731C80.2212 129.483 80.4417 129.235 80.6624 128.988C80.9973 128.605 81.3404 128.23 81.6752 127.848C81.7138 127.811 81.7502 127.773 81.784 127.733C82.1691 127.297 82.554 126.869 82.9391 126.433C82.2363 125.436 81.291 124.601 80.177 123.992C76.3184 121.927 70.9951 123.358 68.2079 126.547C65.4124 129.737 64.8851 134.212 65.8559 138.198C66.8107 141.589 68.3901 144.807 70.5264 147.714C70.3171 147.958 70.0995 148.196 69.8903 148.44C66.0652 152.936 62.7313 157.763 59.9365 162.852C60.6162 157.15 59.805 151.382 57.5697 146.023C55.3042 141.028 51.058 136.822 47.3186 132.504C42.8271 127.317 33.6168 129.581 32.8254 136.155C32.8178 136.219 32.8103 136.283 32.803 136.346C33.3584 136.633 33.9021 136.937 34.4341 137.258C35.1023 137.666 35.6202 138.249 35.9197 138.931C36.2192 139.613 36.2864 140.361 36.1126 141.078C35.9387 141.795 35.5319 142.448 34.9454 142.95C34.3589 143.452 33.6201 143.781 32.8258 143.893L32.7445 143.904C32.9423 145.734 33.2921 147.547 33.7907 149.328C35.2355 154.3 37.7886 158.945 41.2899 162.973C44.7913 167.001 49.1654 170.325 54.138 172.735C54.4644 172.888 54.7826 173.041 55.109 173.186C52.3011 180.459 50.5398 188.034 49.8694 195.722C49.4899 200.257 49.5123 204.813 49.9363 209.346L49.9112 209.185C48.8398 204.145 45.8981 199.598 41.5831 196.311C35.1741 191.499 26.1195 189.728 19.2054 185.86C18.4706 185.429 17.6162 185.199 16.743 185.197C15.8697 185.195 15.0141 185.421 14.277 185.849C13.5399 186.277 12.9521 186.888 12.5828 187.612C12.2136 188.335 12.0784 189.139 12.1931 189.931C12.2023 189.987 12.2118 190.043 12.2213 190.1C13.252 190.483 14.2555 190.925 15.2261 191.423C15.7815 191.709 16.3252 192.013 16.8572 192.335C17.5254 192.743 18.0433 193.326 18.3428 194.007C18.6423 194.689 18.7095 195.437 18.5357 196.155C18.3618 196.872 17.955 197.524 17.3685 198.026C16.782 198.529 16.0432 198.857 15.2489 198.969L15.1675 198.98C15.1089 198.988 15.0587 198.996 15.0002 199.003C16.7613 202.846 19.233 206.384 22.3071 209.46C26.1047 213.184 30.6946 216.161 35.7953 218.206C40.8961 220.251 46.4002 221.323 51.9702 221.355H51.9786C53.4907 227.36 55.6814 233.205 58.5156 238.796H81.8677C81.9515 238.559 82.0268 238.314 82.1021 238.077C79.9406 238.201 77.7706 238.083 75.6405 237.725C77.3731 235.782 79.1056 233.824 80.8382 231.881C80.8769 231.845 80.9132 231.806 80.947 231.766C81.8259 230.772 82.7131 229.785 83.5919 228.791L83.5924 228.789C83.6393 225.741 83.2565 222.7 82.4537 219.741L82.4529 219.741Z" fill="#F2F2F2"/>
<path id="Vector_2" d="M357.847 239.085C357.847 239.201 357.823 239.316 357.774 239.424C357.725 239.531 357.654 239.629 357.564 239.711C357.474 239.794 357.367 239.859 357.249 239.903C357.132 239.947 357.006 239.97 356.878 239.97H0.968542C0.711669 239.97 0.465326 239.877 0.28369 239.711C0.102053 239.545 0 239.319 0 239.085C0 238.85 0.102053 238.625 0.28369 238.459C0.465326 238.293 0.711669 238.199 0.968542 238.199H356.878C357.006 238.199 357.132 238.222 357.249 238.266C357.367 238.31 357.474 238.376 357.564 238.458C357.654 238.54 357.725 238.638 357.774 238.745C357.823 238.853 357.847 238.968 357.847 239.085V239.085Z" fill="#CCCCCC"/>
<path id="Vector_3" d="M185.998 125.111C184.654 124.834 183.26 124.831 181.913 125.1C180.566 125.369 179.299 125.905 178.202 126.67C177.105 127.435 176.204 128.41 175.563 129.526C174.922 130.642 174.556 131.873 174.492 133.131L154.227 139.855L155.666 152.097L184.139 142.235C186.459 142.19 188.682 141.368 190.387 139.926C192.092 138.484 193.16 136.522 193.389 134.411C193.618 132.3 192.993 130.187 191.63 128.473C190.268 126.759 188.264 125.563 185.998 125.111L185.998 125.111Z" fill="#FFB6B6"/>
<path id="Vector_4" d="M153.209 161.013C145.118 166.166 130.865 168.803 111.467 168.682C110.393 168.684 109.331 168.483 108.346 168.091C107.362 167.699 106.477 167.124 105.748 166.403C100.558 161.463 100.761 150.187 100.793 149.098L95.104 129.503C94.982 129.204 91.833 121.164 95.0367 115.549C95.7183 114.376 96.6696 113.352 97.8253 112.548C98.981 111.743 100.314 111.176 101.732 110.886C113.763 107.968 125.073 137.402 126.51 141.291L143.395 138.663L155.055 138.225L166.918 132.241L173.597 146.85L157.068 157.889C155.928 159.072 154.631 160.121 153.209 161.013V161.013Z" fill="#2F2E41"/>
<path id="Vector_5" d="M185.787 323.033L198.224 323.564L206.384 279.974L188.029 279.19L185.787 323.033Z" fill="#FFB6B6"/>
<path id="Vector_6" d="M182.99 317.294L202.705 317.061L202.311 324.76L220.399 337.357C221.293 337.979 221.945 338.846 222.261 339.831C222.578 340.816 222.541 341.867 222.157 342.832C221.773 343.796 221.062 344.624 220.127 345.193C219.192 345.762 218.083 346.043 216.961 345.995L193.554 344.994L189.909 337.207L187.945 344.755L179.119 344.377L182.99 317.294Z" fill="#2F2E41"/>
<g id="leg">
<path id="Vector_7" d="M319.816 238.026L324.346 227.427L281.771 206.411L260.263 218.767L319.816 238.026Z" fill="#FFB6B6"/>
<path id="Vector_8" d="M312.971 238.612L319.04 221.467L326.894 224.272L345.741 212.641C346.672 212.067 347.779 211.779 348.902 211.821C350.024 211.862 351.102 212.23 351.98 212.871C352.857 213.513 353.487 214.393 353.777 215.385C354.068 216.376 354.004 217.427 353.595 218.383L345.067 238.33L335.828 238.993L343.024 243.11L339.808 250.631L312.971 238.612Z" fill="#2F2E41"/>
<path id="Vector_9" d="M75.2055 207.402C75.2055 207.402 80.604 237.499 105.037 239.541C129.471 241.584 151.9 231.356 151.9 231.356L220.116 211.585C220.116 211.585 292.979 229.905 305.21 232.785C305.21 232.785 313.496 215.252 313.205 214.127C310.528 203.765 307.2 210.814 307.2 210.814L229.64 180.172C229.64 180.172 217.409 177.291 196.312 185.637C175.214 193.983 118.678 214.145 118.678 214.145L75.2055 207.402Z" fill="#2F2E41"/>
</g>
<path id="Vector_10" d="M71.332 196.047C71.332 196.047 67.2599 232.151 91.045 237.666C113.655 242.909 144.842 237.531 144.842 237.531L182.022 233.983C182.022 233.983 183.65 277.643 183.65 299.215C191.204 300.153 198.816 300.65 206.439 300.702C208.067 300.702 208.175 299.923 208.175 299.923L211.327 224.465C211.548 221.184 211.016 217.897 209.763 214.816C208.511 211.735 206.567 208.927 204.056 206.574C201.545 204.221 198.522 202.374 195.183 201.153C191.844 199.932 188.262 199.363 184.668 199.483C182.913 199.544 181.072 199.658 179.145 199.824C156.272 201.828 127.877 197.567 127.877 197.567L71.332 196.047Z" fill="#2F2E41"/>
<path id="Vector_11" d="M137.305 143.672C137.305 143.672 146.961 197.038 140.436 201.298C133.91 205.558 124.961 205.575 124.961 205.575L122.881 176.11L137.305 143.672Z" fill="#2F2E41"/>
<path id="Vector_12" d="M121.201 78.1313L134.111 89.3435C140.112 94.5549 144.09 101.413 145.441 108.877C146.792 116.341 145.443 124.004 141.599 130.704L135.427 141.459L121.201 78.1313Z" fill="#2F2E41"/>
<path id="Vector_13" d="M118.313 80.0165L135.807 98.2273C139.647 102.224 142.026 107.216 142.613 112.507V112.507C142.88 114.91 142.773 117.335 142.295 119.71L135.702 152.465L130.747 199.766C130.747 199.766 92.4906 210.36 88.5749 194.002C84.6592 177.644 118.313 80.0165 118.313 80.0165Z" fill="#6C63FF"/>
<path id="Vector_14" d="M101.893 204.212C76.7447 200.382 70.5844 199.621 70.2007 199.487L69.8163 199.353L72.337 185.53L82.9809 161.627C83.6721 153.808 88.1553 143.213 85.5906 134.704C78.1346 109.966 90.2482 75.0083 95.7878 72.3303L111.145 63.129L116.536 67.6461L125.884 79.6048C133.574 110.914 138.886 140.096 138.627 141.88L133.881 172.531L128.288 184.289C111.32 191.771 122.73 207.385 101.893 204.212Z" fill="#2F2E41"/>
<path id="Vector_15" d="M147.423 181.613L186.908 171.958L190.385 171.205L192.864 170.667L195.753 170.042L195.776 170.038C196.196 169.95 196.636 170.017 197.002 170.224L211.664 186.289C211.796 186.364 211.913 186.46 212.009 186.572C212.048 186.602 212.083 186.635 212.113 186.673C212.275 186.875 212.38 187.111 212.42 187.359C212.459 187.607 212.43 187.86 212.337 188.096C212.244 188.332 212.089 188.543 211.885 188.712C211.682 188.88 211.436 189 211.17 189.06L152.265 201.449C151.96 201.512 151.642 201.495 151.347 201.4C151.051 201.305 150.792 201.135 150.598 200.911L150 200.203L146.74 185.858L146.508 183.995C146.36 183.823 146.256 183.622 146.203 183.409C146.108 183.023 146.183 182.619 146.411 182.283C146.639 181.947 147.002 181.707 147.423 181.613V181.613Z" fill="#E6E6E6"/>
<path id="Vector_16" opacity="0.17" d="M150 200.314L150.601 201.024C150.795 201.248 151.054 201.417 151.348 201.512C151.642 201.608 151.96 201.625 152.264 201.563L211.171 189.173C211.437 189.113 211.683 188.993 211.886 188.825C212.09 188.657 212.245 188.446 212.338 188.21C212.431 187.974 212.459 187.721 212.42 187.473C212.38 187.225 212.275 186.989 212.112 186.787C212.083 186.749 212.049 186.715 212.009 186.687L150 200.314Z" fill="black"/>
<path id="Vector_17" d="M195.459 170.05L194.393 101.419C194.348 101.006 194.485 100.594 194.773 100.273L202.321 85.9154L203.105 85.0448C203.397 84.7264 203.813 84.5251 204.265 84.4841L205.908 84.3442C206.361 84.3035 206.812 84.4289 207.164 84.6926C207.515 84.9563 207.738 85.3368 207.782 85.7504V85.7504L209.262 158.367L209.263 158.372L209.996 165.364L210.865 173.667L210.867 173.677L212.223 186.595C212.249 186.816 212.221 187.039 212.143 187.25C212.065 187.46 211.937 187.652 211.77 187.813C211.606 187.976 211.407 188.105 211.184 188.192C210.962 188.279 210.722 188.322 210.48 188.318L209.411 188.298C209.001 188.288 208.608 188.147 208.301 187.898L207.703 187.407L207.426 187.176L196.026 171.07C195.702 170.808 195.499 170.443 195.459 170.05V170.05Z" fill="#E6E6E6"/>
<path id="Vector_18" opacity="0.17" d="M202.324 85.9154L207.425 187.179L207.704 187.407L208.3 187.896C208.606 188.145 209 188.287 209.41 188.297L210.481 188.316C210.723 188.32 210.963 188.277 211.186 188.19C211.408 188.103 211.609 187.974 211.773 187.812C211.938 187.649 212.063 187.457 212.14 187.247C212.218 187.038 212.246 186.815 212.223 186.595L207.78 85.7526C207.737 85.3388 207.515 84.9576 207.164 84.693C206.813 84.4284 206.362 84.3019 205.909 84.3414L204.263 84.4856C204.039 84.5044 203.822 84.5637 203.624 84.66C203.426 84.7563 203.25 84.8878 203.108 85.0466L202.324 85.9154Z" fill="black"/>
<path id="Vector_19" d="M202.753 90.0073L195.85 105.58L196.704 152.164L204.177 162.042L202.753 90.0073Z" fill="#6C63FF"/>
<path id="Vector_20" d="M151.973 181.315C151.595 181.413 151.276 181.645 151.085 181.958C150.894 182.272 150.847 182.642 150.954 182.987L153.995 194.57L156.844 193.828L153.803 182.246C153.696 181.901 153.442 181.609 153.099 181.434C152.756 181.259 152.351 181.216 151.973 181.315V181.315Z" fill="#2F2E41"/>
<path id="Vector_21" d="M157.672 179.832C157.294 179.93 156.975 180.162 156.784 180.475C156.592 180.789 156.545 181.159 156.653 181.504L157.302 183.588L160.151 182.846L159.502 180.763C159.395 180.418 159.141 180.126 158.798 179.951C158.455 179.776 158.05 179.733 157.672 179.832Z" fill="#2F2E41"/>
<path id="Vector_22" d="M163.371 178.349C162.993 178.447 162.673 178.678 162.482 178.992C162.291 179.306 162.244 179.676 162.352 180.021L163.001 182.105L165.85 181.363L165.201 179.28C165.093 178.935 164.84 178.643 164.497 178.468C164.154 178.293 163.749 178.25 163.371 178.349V178.349Z" fill="#2F2E41"/>
<path id="Vector_23" d="M169.069 176.865C168.692 176.964 168.372 177.195 168.181 177.509C167.99 177.823 167.943 178.193 168.05 178.538L168.7 180.622L171.549 179.88L170.9 177.797C170.792 177.452 170.539 177.159 170.196 176.985C169.852 176.81 169.447 176.767 169.069 176.865V176.865Z" fill="#2F2E41"/>
<path id="Vector_24" d="M174.768 175.383C174.39 175.481 174.071 175.712 173.88 176.026C173.689 176.34 173.642 176.71 173.749 177.055L174.398 179.139L177.248 178.397L176.599 176.314C176.491 175.969 176.238 175.677 175.894 175.502C175.551 175.327 175.146 175.284 174.768 175.383V175.383Z" fill="#2F2E41"/>
<path id="Vector_25" d="M180.467 173.899C180.089 173.998 179.77 174.229 179.579 174.543C179.388 174.857 179.341 175.227 179.448 175.572L180.097 177.656L182.946 176.914L182.297 174.831C182.19 174.486 181.936 174.193 181.593 174.019C181.25 173.844 180.845 173.801 180.467 173.899Z" fill="#2F2E41"/>
<path id="Vector_26" d="M186.166 172.417C185.788 172.515 185.468 172.746 185.277 173.06C185.086 173.374 185.039 173.744 185.147 174.089L185.796 176.173L188.645 175.431L187.996 173.348C187.888 173.003 187.635 172.711 187.292 172.536C186.949 172.361 186.544 172.318 186.166 172.417V172.417Z" fill="#2F2E41"/>
<path id="Vector_27" d="M191.865 170.933C191.487 171.032 191.167 171.263 190.976 171.577C190.785 171.891 190.738 172.261 190.846 172.606L191.495 174.69L194.344 173.948L193.695 171.865C193.587 171.52 193.334 171.227 192.991 171.053C192.647 170.878 192.242 170.835 191.865 170.933V170.933Z" fill="#2F2E41"/>
<path id="Vector_28" d="M158.868 184.581C158.49 184.68 158.171 184.911 157.979 185.225C157.788 185.538 157.741 185.909 157.849 186.254L158.498 188.337L161.347 187.596L160.698 185.512C160.591 185.167 160.337 184.875 159.994 184.701C159.651 184.526 159.246 184.483 158.868 184.581V184.581Z" fill="#2F2E41"/>
<path id="Vector_29" d="M164.567 183.098C164.189 183.197 163.869 183.428 163.678 183.742C163.487 184.055 163.44 184.426 163.548 184.771L164.197 186.854L167.046 186.113L166.397 184.029C166.289 183.684 166.036 183.392 165.693 183.218C165.35 183.043 164.944 183 164.567 183.098Z" fill="#2F2E41"/>
<path id="Vector_30" d="M170.265 181.615C169.888 181.714 169.568 181.945 169.377 182.259C169.186 182.572 169.139 182.943 169.246 183.288L169.895 185.371L172.745 184.63L172.096 182.546C171.988 182.201 171.735 181.909 171.392 181.735C171.048 181.56 170.643 181.517 170.265 181.615Z" fill="#2F2E41"/>
<path id="Vector_31" d="M175.964 180.132C175.586 180.231 175.267 180.462 175.076 180.776C174.885 181.089 174.838 181.46 174.945 181.805L175.594 183.888L178.444 183.147L177.795 181.063C177.687 180.718 177.434 180.426 177.09 180.252C176.747 180.077 176.342 180.034 175.964 180.132Z" fill="#2F2E41"/>
<path id="Vector_32" d="M181.663 178.649C181.285 178.748 180.966 178.979 180.775 179.293C180.584 179.606 180.537 179.977 180.644 180.322L181.293 182.405L184.142 181.664L183.493 179.581C183.386 179.235 183.132 178.943 182.789 178.769C182.446 178.594 182.041 178.551 181.663 178.649V178.649Z" fill="#2F2E41"/>
<path id="Vector_33" d="M187.362 177.166C186.984 177.265 186.664 177.496 186.473 177.81C186.282 178.123 186.235 178.494 186.343 178.839L186.992 180.922L189.841 180.181L189.192 178.097C189.084 177.752 188.831 177.46 188.488 177.286C188.145 177.111 187.74 177.068 187.362 177.166V177.166Z" fill="#2F2E41"/>
<path id="Vector_34" d="M193.061 175.683C192.683 175.782 192.363 176.013 192.172 176.327C191.981 176.64 191.934 177.011 192.042 177.356L192.691 179.439L195.54 178.698L194.891 176.614C194.783 176.269 194.53 175.977 194.187 175.802C193.843 175.628 193.438 175.585 193.061 175.683Z" fill="#2F2E41"/>
<path id="Vector_35" d="M160.064 189.331C159.686 189.429 159.367 189.661 159.175 189.974C158.984 190.288 158.937 190.658 159.045 191.004L159.694 193.087L162.543 192.345L161.894 190.262C161.786 189.917 161.533 189.625 161.19 189.45C160.847 189.275 160.442 189.233 160.064 189.331V189.331Z" fill="#2F2E41"/>
<path id="Vector_36" d="M165.763 187.848C165.385 187.946 165.065 188.178 164.874 188.491C164.683 188.805 164.636 189.175 164.744 189.521L165.393 191.604L168.242 190.862L167.593 188.779C167.485 188.434 167.232 188.142 166.889 187.967C166.546 187.792 166.14 187.75 165.763 187.848V187.848Z" fill="#2F2E41"/>
<path id="Vector_37" d="M171.461 186.365C171.084 186.463 170.764 186.695 170.573 187.008C170.382 187.322 170.335 187.692 170.442 188.038L171.091 190.121L173.941 189.379L173.292 187.296C173.184 186.951 172.931 186.659 172.588 186.484C172.244 186.309 171.839 186.267 171.461 186.365Z" fill="#2F2E41"/>
<path id="Vector_38" d="M177.16 184.882C176.782 184.98 176.463 185.212 176.272 185.525C176.081 185.839 176.034 186.209 176.141 186.555L176.79 188.638L179.64 187.896L178.991 185.813C178.883 185.468 178.63 185.176 178.286 185.001C177.943 184.826 177.538 184.784 177.16 184.882Z" fill="#2F2E41"/>
<path id="Vector_39" d="M182.859 183.399C182.481 183.497 182.162 183.729 181.971 184.042C181.779 184.356 181.733 184.726 181.84 185.071L182.489 187.155L185.338 186.413L184.689 184.33C184.582 183.985 184.328 183.693 183.985 183.518C183.642 183.343 183.237 183.3 182.859 183.399V183.399Z" fill="#2F2E41"/>
<path id="Vector_40" d="M188.558 181.916C188.18 182.014 187.86 182.246 187.669 182.559C187.478 182.873 187.431 183.243 187.539 183.589L188.188 185.672L191.037 184.93L190.388 182.847C190.28 182.502 190.027 182.21 189.684 182.035C189.341 181.86 188.936 181.818 188.558 181.916Z" fill="#2F2E41"/>
<path id="Vector_41" d="M194.257 180.433C193.879 180.531 193.559 180.763 193.368 181.076C193.177 181.39 193.13 181.76 193.238 182.106L193.887 184.189L196.736 183.447L196.087 181.364C195.979 181.019 195.726 180.727 195.383 180.552C195.039 180.377 194.634 180.335 194.257 180.433V180.433Z" fill="#2F2E41"/>
<g id="leftArm">
<path id="Vector_42" d="M183.502 166.022C182.599 165.09 181.48 164.356 180.223 163.871C178.966 163.387 177.601 163.164 176.225 163.218C174.85 163.272 173.496 163.602 172.26 164.185C171.024 164.767 169.936 165.588 169.071 166.59L148.434 161.5L141.691 172.328L170.955 179.137C172.85 180.316 175.169 180.805 177.47 180.512C179.772 180.219 181.898 179.164 183.444 177.548C184.991 175.931 185.851 173.865 185.862 171.74C185.872 169.616 185.033 167.581 183.502 166.022V166.022Z" fill="#FFB6B6"/>
<path id="Vector_43" d="M129.429 177.642C119.591 177.26 106.617 171.457 91.468 160.608C90.623 160.015 89.9246 159.265 89.4171 158.407C88.9095 157.549 88.6039 156.601 88.5196 155.624C87.7859 148.814 95.5729 139.951 96.3351 139.102L105.124 120.35C105.23 120.044 108.197 111.899 114.51 109.205C115.839 108.65 117.279 108.362 118.73 108.362C120.182 108.362 121.612 108.649 122.921 109.205C134.342 113.552 123.311 143.251 121.808 147.143L136.843 154.411L146.294 160.526L159.657 162.339L155.019 177.67L134.573 177.295C132.877 177.605 131.15 177.721 129.429 177.642V177.642Z" fill="#2F2E41"/>
</g>
<path id="Vector_44" d="M145.943 41.5545C147.589 28.9987 138.029 17.6273 124.591 16.1558C111.152 14.6842 98.9231 23.6697 97.2771 36.2255C95.631 48.7813 105.191 60.1527 118.63 61.6242C132.069 63.0958 144.297 54.1103 145.943 41.5545Z" fill="#FFB6B6"/>
<path id="Vector_45" d="M57.7899 21.9004C62.5039 17.9451 65.2371 12.3118 69.1999 7.66817C73.1627 3.02448 79.504 -0.82563 85.4301 1.0049C89.5151 2.26682 92.3105 6.00076 93.4561 9.94787C94.6013 13.8949 94.3638 18.0834 94.1175 22.1852C95.1127 13.8094 102.206 6.36061 110.862 4.6011C119.518 2.84153 129.068 6.90725 133.406 14.1988C135.937 12.5189 139.054 11.7458 142.167 12.0262C145.28 12.3067 148.171 13.621 150.294 15.7203C154.463 20.0449 154.545 27.4162 150.474 31.9044C146.403 36.3925 138.729 37.3903 133.627 34.0952L131.485 35.5056C132.116 39.0953 129.473 42.9645 125.762 43.8834C122.753 44.6287 118.724 44.0086 117.289 46.6438C116.286 48.4851 117.42 50.6918 118.718 52.3333C120.017 53.9747 121.588 55.695 121.499 57.76C121.366 60.8757 117.593 62.6555 114.335 62.9592C106.481 63.6917 98.4181 59.5252 94.8184 52.8735C94.749 52.7452 94.6723 52.6159 94.5881 52.4857C92.4937 49.3241 91.1266 45.8055 90.5704 42.1447C90.0141 38.484 90.2804 34.758 91.3529 31.1945C91.7879 29.7958 91.677 28.7079 90.6457 28.2524C86.1878 26.2838 72.7605 27.9207 68.4555 30.2576C64.1502 32.5944 60.5131 35.9126 56.3296 38.444C52.1458 40.9754 47.0089 42.7189 42.2927 41.3884C38.5155 40.3228 35.5664 37.401 33.7619 34.0686C31.9577 30.7363 31.1583 26.9948 30.4886 23.2901C38.4363 28.7332 50.37 28.1257 57.7899 21.9004Z" fill="#2F2E41"/>
</g>
</svg>
